<?xml version="1.0" standalone="no"?><!DOCTYPE svg PUBLIC "-//W3C//DTD SVG 1.1//EN" "http://www.w3.org/Graphics/SVG/1.1/DTD/svg11.dtd"><svg height="1024" node-id="1" sillyvg="true" template-height="1024" template-width="1024" version="1.1" viewBox="0 0 1024 1024" width="1024" xmlns="http://www.w3.org/2000/svg" xmlns:xlink="http://www.w3.org/1999/xlink"><defs node-id="74"><clipPath id="clippath" node-id="5"><path d="M 0.00 0.00 L 1024.00 0.00 L 1024.00 1024.00 L 0.00 1024.00 Z" fill="#000000" fill-rule="nonzero" node-id="77" stroke="none" target-height="1024" target-width="1024" target-x="0" target-y="0"></path></clipPath></defs><g node-id="211"><g clip-path="url(#clippath)" group-id="1" node-id="83"><path d="M 408.17 222.67 C 408.17 236.79 396.72 248.24 382.60 248.24 C 368.48 248.24 357.03 236.79 357.03 222.67 C 357.03 208.55 368.48 197.10 382.60 197.10 C 396.72 197.10 408.17 208.55 408.17 222.67 Z" fill="#fefefe" fill-rule="nonzero" group-id="1,2" node-id="85" stroke="none" target-height="51.139984" target-width="51.140015" target-x="357.03" target-y="197.1"></path><path d="M 408.17 222.67 C 408.17 236.79 396.72 248.24 382.60 248.24 C 368.48 248.24 357.03 236.79 357.03 222.67 C 357.03 208.55 368.48 197.10 382.60 197.10 C 396.72 197.10 408.17 208.55 408.17 222.67 Z" fill="none" group-id="1,2" node-id="87" stroke="#373435" stroke-linecap="round" stroke-width="1.42" target-height="51.139984" target-width="51.140015" target-x="357.03" target-y="197.1"></path><path d="M 248.40 887.18 L 860.33 887.18 L 974.93 547.51 C 979.29 534.58 972.28 524.01 959.36 524.01 L 394.43 524.01 C 381.50 524.01 367.36 534.59 363.00 547.51 L 248.40 887.18 Z" fill="#373435" fill-rule="evenodd" group-id="1,2" node-id="89" stroke="none" target-height="363.16998" target-width="730.89" target-x="248.4" target-y="524.01"></path><path d="M 248.40 887.18 L 860.33 887.18 L 974.93 547.51 C 979.29 534.58 972.28 524.01 959.36 524.01 L 394.43 524.01 C 381.50 524.01 367.36 534.59 363.00 547.51 L 248.40 887.18 Z" fill="none" group-id="1,2" node-id="91" stroke="#373435" stroke-linecap="round" stroke-width="1.42" target-height="363.16998" target-width="730.89" target-x="248.4" target-y="524.01"></path><path d="M 389.48 550.11 L 942.95 550.11 L 829.23 887.18 L 275.76 887.18 L 389.48 550.11 Z" fill="#373435" fill-rule="evenodd" group-id="1,2" node-id="93" stroke="none" target-height="337.07" target-width="667.19" target-x="275.76" target-y="550.11"></path><path d="M 389.48 550.11 L 942.95 550.11 L 829.23 887.18 L 275.76 887.18 L 389.48 550.11 Z" fill="none" group-id="1,2" node-id="95" stroke="#373435" stroke-linecap="round" stroke-width="1.42" target-height="337.07" target-width="667.19" target-x="275.76" target-y="550.11"></path><path d="M 451.32 230.04 L 1004.79 230.04 L 891.07 567.10 L 337.60 567.10 L 451.32 230.04 Z" fill="#fefefe" fill-rule="evenodd" group-id="1,2" node-id="97" stroke="none" target-height="337.05997" target-width="667.18994" target-x="337.6" target-y="230.04001"></path><path d="M 451.32 230.04 L 1004.79 230.04 L 891.07 567.10 L 337.60 567.10 L 451.32 230.04 Z" fill="none" group-id="1,2" node-id="99" stroke="#373435" stroke-linecap="round" stroke-width="1.42" target-height="337.05997" target-width="667.18994" target-x="337.6" target-y="230.04001"></path><path d="M 930.06 313.43 L 478.02 313.43" fill="none" group-id="1,2" node-id="101" stroke="#373435" stroke-linecap="round" stroke-width="1.42" target-height="0" target-width="452.03995" target-x="478.02" target-y="313.43"></path><path d="M 454.91 390.14 L 906.95 390.14" fill="none" group-id="1,2" node-id="103" stroke="#373435" stroke-linecap="round" stroke-width="1.42" target-height="0" target-width="452.04" target-x="454.91" target-y="390.14"></path><path d="M 422.87 474.02 L 874.91 474.02" fill="none" group-id="1,2" node-id="105" stroke="#373435" stroke-linecap="round" stroke-width="1.42" target-height="0" target-width="452.03995" target-x="422.86996" target-y="474.02"></path><path d="M 861.99 250.12 L 751.24 549.81" fill="none" group-id="1,2" node-id="107" stroke="#373435" stroke-linecap="round" stroke-width="1.42" target-height="299.69" target-width="110.75" target-x="751.24" target-y="250.11998"></path><path d="M 757.62 250.12 L 646.88 549.81" fill="none" group-id="1,2" node-id="109" stroke="#373435" stroke-linecap="round" stroke-width="1.42" target-height="299.69" target-width="110.73999" target-x="646.88" target-y="250.11998"></path><path d="M 653.25 250.12 L 542.51 549.81" fill="none" group-id="1,2" node-id="111" stroke="#373435" stroke-linecap="round" stroke-width="1.42" target-height="299.69" target-width="110.73999" target-x="542.51" target-y="250.11998"></path><path d="M 548.89 250.12 L 438.15 549.81" fill="none" group-id="1,2" node-id="113" stroke="#373435" stroke-linecap="round" stroke-width="1.42" target-height="299.69" target-width="110.74002" target-x="438.15" target-y="250.11998"></path><path d="M 928.83 948.70 L 73.37 948.70" fill="none" group-id="1,2" node-id="115" stroke="#373435" stroke-linecap="round" stroke-width="1.42" target-height="0" target-width="855.46" target-x="73.37" target-y="948.7"></path><path d="M 355.93 467.07 C 372.59 448.40 390.04 420.17 402.91 407.62 C 420.86 390.11 424.86 385.39 431.39 381.38 C 450.07 369.89 470.92 366.06 478.88 375.63 C 478.88 375.63 499.48 361.05 515.34 378.84 C 515.58 379.11 531.86 373.54 545.97 387.56 C 556.36 397.89 570.79 425.50 550.08 439.82 C 537.17 448.75 524.47 437.30 524.47 437.30 C 523.63 438.66 498.50 471.92 494.49 478.13 L 355.93 467.07 Z" fill="#fefefe" fill-rule="evenodd" group-id="1,2" node-id="117" stroke="none" target-height="117.08002" target-width="214.85999" target-x="355.93" target-y="361.05"></path><path d="M 355.93 467.07 C 372.59 448.40 390.04 420.17 402.91 407.62 C 420.86 390.11 424.86 385.39 431.39 381.38 C 450.07 369.89 470.92 366.06 478.88 375.63 C 478.88 375.63 499.48 361.05 515.34 378.84 C 515.58 379.11 531.86 373.54 545.97 387.56 C 556.36 397.89 570.79 425.50 550.08 439.82 C 537.17 448.75 524.47 437.30 524.47 437.30 C 523.63 438.66 498.50 471.92 494.49 478.13 L 355.93 467.07 Z" fill="none" group-id="1,2" node-id="119" stroke="#373435" stroke-linecap="round" stroke-width="1.42" target-height="117.08002" target-width="214.85999" target-x="355.93" target-y="361.05"></path><path d="M 465.13 385.33 L 478.88 375.63" fill="none" group-id="1,2" node-id="121" stroke="#373435" stroke-linecap="round" stroke-width="1.42" target-height="9.699982" target-width="13.75" target-x="465.13" target-y="375.62997"></path><path d="M 506.07 386.83 L 517.93 378.38" fill="none" group-id="1,2" node-id="123" stroke="#373435" stroke-linecap="round" stroke-width="1.42" target-height="8.449951" target-width="11.859985" target-x="506.07" target-y="378.38"></path><path d="M 523.63 438.66 L 535.22 421.09" fill="none" group-id="1,2" node-id="125" stroke="#373435" stroke-linecap="round" stroke-width="1.42" target-height="17.570038" target-width="11.589966" target-x="523.63" target-y="421.08997"></path><path d="M 43.42 876.56 L 777.24 876.56 L 777.24 913.44 C 777.24 932.83 761.37 948.70 741.98 948.70 L 78.68 948.70 C 59.29 948.70 43.42 932.83 43.42 913.44 L 43.42 876.56 Z" fill="#d2d3d5" fill-rule="evenodd" group-id="1,2" node-id="127" stroke="none" target-height="72.140015" target-width="733.82" target-x="43.419994" target-y="876.56"></path><path d="M 43.42 876.56 L 777.24 876.56 L 777.24 913.44 C 777.24 932.83 761.37 948.70 741.98 948.70 L 78.68 948.70 C 59.29 948.70 43.42 932.83 43.42 913.44 L 43.42 876.56 Z" fill="none" group-id="1,2" node-id="129" stroke="#373435" stroke-linecap="round" stroke-width="1.42" target-height="72.140015" target-width="733.82" target-x="43.419994" target-y="876.56"></path><path d="M 564.82 876.56 L 864.70 876.56 L 864.70 913.44 C 864.70 932.83 848.83 948.70 829.44 948.70 L 600.08 948.70 C 580.69 948.70 564.82 932.83 564.82 913.44 L 564.82 876.56 Z" fill="#d2d3d5" fill-rule="evenodd" group-id="1,2" node-id="131" stroke="none" target-height="72.140015" target-width="299.88" target-x="564.82" target-y="876.56"></path><path d="M 564.82 876.56 L 864.70 876.56 L 864.70 913.44 C 864.70 932.83 848.83 948.70 829.44 948.70 L 600.08 948.70 C 580.69 948.70 564.82 932.83 564.82 913.44 L 564.82 876.56 Z" fill="none" group-id="1,2" node-id="133" stroke="#373435" stroke-linecap="round" stroke-width="1.42" target-height="72.140015" target-width="299.88" target-x="564.82" target-y="876.56"></path><path d="M 340.21 328.25 L 286.71 313.34 L 319.67 199.44 C 325.31 176.36 354.63 169.31 369.78 192.44 C 374.19 199.17 382.68 226.76 385.90 235.96 C 392.43 254.65 399.05 275.29 389.14 283.91 C 383.41 288.90 372.61 293.42 353.59 283.14 L 340.21 328.25 Z" fill="#fefefe" fill-rule="evenodd" group-id="1,2" node-id="135" stroke="none" target-height="158.94" target-width="112.34" target-x="286.71" target-y="169.31"></path><path d="M 340.21 328.25 L 286.71 313.34 L 319.67 199.44 C 325.31 176.36 354.63 169.31 369.78 192.44 C 374.19 199.17 382.68 226.76 385.90 235.96 C 392.43 254.65 399.05 275.29 389.14 283.91 C 383.41 288.90 372.61 293.42 353.59 283.14 L 340.21 328.25 Z" fill="none" group-id="1,2" node-id="137" stroke="#373435" stroke-linecap="round" stroke-width="1.42" target-height="158.94" target-width="112.34" target-x="286.71" target-y="169.31"></path><path d="M 289.24 305.75 C 288.25 307.97 232.13 498.82 224.56 523.67 C 224.45 524.04 373.66 575.44 373.28 573.05 C 364.53 519.00 349.83 410.30 344.55 344.23 C 344.30 341.09 343.09 326.40 330.75 321.65 C 322.33 318.41 289.25 305.75 289.25 305.75 Z" fill="#373435" fill-rule="evenodd" group-id="1,2" node-id="139" stroke="none" target-height="269.69" target-width="149.20999" target-x="224.45001" target-y="305.75"></path><path d="M 289.24 305.75 C 288.25 307.97 232.13 498.82 224.56 523.67 C 224.45 524.04 373.66 575.44 373.28 573.05 C 364.53 519.00 349.83 410.30 344.55 344.23 C 344.30 341.09 343.09 326.40 330.75 321.65 C 322.33 318.41 289.25 305.75 289.25 305.75 Z" fill="none" group-id="1,2" node-id="141" stroke="#373435" stroke-linecap="round" stroke-width="1.42" target-height="269.69" target-width="149.20999" target-x="224.45001" target-y="305.75"></path><path d="M 178.47 741.07 C 177.74 742.86 240.54 808.44 241.43 808.44 C 241.78 808.35 330.48 785.58 352.21 777.35 C 389.24 763.32 375.93 705.83 375.51 705.83 C 375.02 705.83 417.82 713.66 422.48 714.83 L 394.12 799.79 L 503.71 798.61 C 504.37 788.76 522.01 747.92 534.39 708.65 C 554.38 645.22 516.65 630.91 484.30 615.72 L 349.11 564.21 L 224.43 524.08 C 211.14 565.91 180.80 646.16 252.71 682.22 L 178.48 741.06 Z" fill="#fefefe" fill-rule="evenodd" group-id="1,2" node-id="143" stroke="none" target-height="284.35992" target-width="376.64" target-x="177.74" target-y="524.08"></path><path d="M 178.47 741.07 C 177.74 742.86 240.54 808.44 241.43 808.44 C 241.78 808.35 330.48 785.58 352.21 777.35 C 389.24 763.32 375.93 705.83 375.51 705.83 C 375.02 705.83 417.82 713.66 422.48 714.83 L 394.12 799.79 L 503.71 798.61 C 504.37 788.76 522.01 747.92 534.39 708.65 C 554.38 645.22 516.65 630.91 484.30 615.72 L 349.11 564.21 L 224.43 524.08 C 211.14 565.91 180.80 646.16 252.71 682.22 L 178.48 741.06 Z" fill="none" group-id="1,2" node-id="145" stroke="#373435" stroke-linecap="round" stroke-width="1.42" target-height="284.35992" target-width="376.64" target-x="177.74" target-y="524.08"></path><path d="M 395.93 798.54 C 394.33 801.56 368.06 876.24 368.06 876.24 C 368.06 876.24 564.43 876.46 564.47 875.96 C 568.43 831.17 511.49 845.69 500.11 798.61 L 395.93 798.53 Z" fill="#d2d3d5" fill-rule="evenodd" group-id="1,2" node-id="147" stroke="none" target-height="77.92999" target-width="200.37" target-x="368.06" target-y="798.53"></path><path d="M 395.93 798.54 C 394.33 801.56 368.06 876.24 368.06 876.24 C 368.06 876.24 564.43 876.46 564.47 875.96 C 568.43 831.17 511.49 845.69 500.11 798.61 L 395.93 798.53 Z" fill="none" group-id="1,2" node-id="149" stroke="#373435" stroke-linecap="round" stroke-width="1.42" target-height="77.92999" target-width="200.37" target-x="368.06" target-y="798.53"></path><path d="M 353.74 282.56 L 360.02 262.95" fill="none" group-id="1,2" node-id="151" stroke="#373435" stroke-linecap="round" stroke-width="1.42" target-height="19.609985" target-width="6.2800293" target-x="353.74" target-y="262.95"></path><path d="M 181.44 876.99 C 182.62 877.15 281.54 876.85 281.54 876.85 C 283.23 876.94 283.19 840.26 243.50 835.05 C 244.07 814.40 241.03 807.20 241.03 807.20 L 178.48 741.08 L 105.83 797.82 L 181.44 877.00 Z" fill="#d2d3d5" fill-rule="evenodd" group-id="1,2" node-id="153" stroke="none" target-height="136.07" target-width="177.40001" target-x="105.83" target-y="741.08"></path><path d="M 181.44 876.99 C 182.62 877.15 281.54 876.85 281.54 876.85 C 283.23 876.94 283.19 840.26 243.50 835.05 C 244.07 814.40 241.03 807.20 241.03 807.20 L 178.48 741.08 L 105.83 797.82 L 181.44 877.00 Z" fill="none" group-id="1,2" node-id="155" stroke="#373435" stroke-linecap="round" stroke-width="1.42" target-height="136.07" target-width="177.40001" target-x="105.83" target-y="741.08"></path><path d="M 180.34 742.83 L 241.43 808.44" fill="none" group-id="1,2" node-id="157" stroke="#373435" stroke-linecap="round" stroke-width="1.42" target-height="65.609924" target-width="61.089996" target-x="180.34" target-y="742.83"></path><path d="M 243.49 835.05 C 240.70 833.54 221.65 836.27 219.75 837.46" fill="none" group-id="1,2" node-id="159" stroke="#373435" stroke-linecap="round" stroke-width="1.42" target-height="3.919983" target-width="23.740005" target-x="219.74998" target-y="833.54004"></path><path d="M 378.91 706.66 L 252.70 682.24" fill="none" group-id="1,2" node-id="161" stroke="#373435" stroke-linecap="round" stroke-width="1.42" target-height="24.419922" target-width="126.21004" target-x="252.7" target-y="682.24"></path><path d="M 420.02 714.30 L 444.88 717.99" fill="none" group-id="1,2" node-id="163" stroke="#373435" stroke-linecap="round" stroke-width="1.42" target-height="3.6900024" target-width="24.860016" target-x="420.02" target-y="714.3"></path><path d="M 326.25 347.97 L 338.73 326.90 L 480.54 457.66 L 527.66 426.60 L 666.87 475.77 L 557.01 562.61 C 509.92 591.91 462.24 576.68 422.45 517.50 C 392.63 473.15 346.61 378.64 326.25 347.97 Z" fill="#373435" fill-rule="evenodd" group-id="1,2" node-id="165" stroke="none" target-height="265.00998" target-width="340.62" target-x="326.25" target-y="326.9"></path><path d="M 326.25 347.97 L 338.73 326.90 L 480.54 457.66 L 527.66 426.60 L 666.87 475.77 L 557.01 562.61 C 509.92 591.91 462.24 576.68 422.45 517.50 C 392.63 473.15 346.61 378.64 326.25 347.97 Z" fill="none" group-id="1,2" node-id="167" stroke="#373435" stroke-linecap="round" stroke-width="1.42" target-height="265.00998" target-width="340.62" target-x="326.25" target-y="326.9"></path><path d="M 458.33 513.71 L 382.41 410.99 L 346.25 447.60 L 283.25 343.73 L 291.16 474.33 C 294.86 518.62 306.91 546.59 362.73 556.48 C 385.89 560.59 460.49 513.86 458.33 513.71 Z" fill="#373435" fill-rule="evenodd" group-id="1,2" node-id="169" stroke="none" target-height="216.86002" target-width="177.23996" target-x="283.25" target-y="343.73"></path><path d="M 458.33 513.71 L 382.41 410.99 L 346.25 447.60 L 283.25 343.73 L 291.16 474.33 C 294.86 518.62 306.91 546.59 362.73 556.48 C 385.89 560.59 460.49 513.86 458.33 513.71 Z" fill="none" group-id="1,2" node-id="171" stroke="#373435" stroke-linecap="round" stroke-width="1.42" target-height="216.86002" target-width="177.23996" target-x="283.25" target-y="343.73"></path><path d="M 211.14 684.23 L 407.74 684.23 C 419.39 684.23 428.85 693.69 428.85 705.34 L 428.85 705.34 C 428.85 716.99 419.39 726.45 407.74 726.45 L 211.14 726.45 C 199.49 726.45 190.03 716.99 190.03 705.34 L 190.03 705.34 C 190.03 693.69 199.49 684.23 211.14 684.23 Z" fill="#d2d3d5" fill-rule="nonzero" group-id="1,2" node-id="173" stroke="none" target-height="42.22003" target-width="238.81999" target-x="190.03001" target-y="684.23"></path><path d="M 211.14 684.23 L 407.74 684.23 C 419.39 684.23 428.85 693.69 428.85 705.34 L 428.85 705.34 C 428.85 716.99 419.39 726.45 407.74 726.45 L 211.14 726.45 C 199.49 726.45 190.03 716.99 190.03 705.34 L 190.03 705.34 C 190.03 693.69 199.49 684.23 211.14 684.23 Z" fill="none" group-id="1,2" node-id="175" stroke="#373435" stroke-linecap="round" stroke-width="1.42" target-height="42.22003" target-width="238.81999" target-x="190.03001" target-y="684.23"></path><path d="M 219.63 726.45 L 241.66 726.45 L 199.30 876.56 L 177.27 876.56 L 219.63 726.45 Z" fill="#fefefe" fill-rule="evenodd" group-id="1,2" node-id="177" stroke="none" target-height="150.10999" target-width="64.39" target-x="177.27" target-y="726.45"></path><path d="M 219.63 726.45 L 241.66 726.45 L 199.30 876.56 L 177.27 876.56 L 219.63 726.45 Z" fill="none" group-id="1,2" node-id="179" stroke="#373435" stroke-linecap="round" stroke-width="1.42" target-height="150.10999" target-width="64.39" target-x="177.27" target-y="726.45"></path><path d="M 706.05 394.76 L 809.00 394.76 L 780.74 468.72 L 677.79 468.72 L 706.05 394.76 Z" fill="#373435" fill-rule="evenodd" group-id="1,2" node-id="181" stroke="none" target-height="73.95993" target-width="131.21002" target-x="677.79" target-y="394.76004"></path><path d="M 706.05 394.76 L 809.00 394.76 L 780.74 468.72 L 677.79 468.72 L 706.05 394.76 Z" fill="none" group-id="1,2" node-id="183" stroke="#373435" stroke-linecap="round" stroke-width="1.42" target-height="73.95993" target-width="131.21002" target-x="677.79" target-y="394.76004"></path><path d="M 716.41 412.04 L 800.21 412.04 L 777.21 472.24 L 693.41 472.24 L 716.41 412.04 Z" fill="#fefefe" fill-rule="evenodd" group-id="1,2" node-id="185" stroke="none" target-height="60.19995" target-width="106.80005" target-x="693.41" target-y="412.04004"></path><path d="M 716.41 412.04 L 800.21 412.04 L 777.21 472.24 L 693.41 472.24 L 716.41 412.04 Z" fill="none" group-id="1,2" node-id="187" stroke="#373435" stroke-linecap="round" stroke-width="1.42" target-height="60.19995" target-width="106.80005" target-x="693.41" target-y="412.04004"></path><path d="M 391.45 726.45 L 369.42 726.45 L 411.77 876.56 L 433.80 876.56 L 391.45 726.45 Z" fill="#fefefe" fill-rule="evenodd" group-id="1,2" node-id="189" stroke="none" target-height="150.10999" target-width="64.379974" target-x="369.42" target-y="726.45"></path><path d="M 391.45 726.45 L 369.42 726.45 L 411.77 876.56 L 433.80 876.56 L 391.45 726.45 Z" fill="none" group-id="1,2" node-id="191" stroke="#373435" stroke-linecap="round" stroke-width="1.42" target-height="150.10999" target-width="64.379974" target-x="369.42" target-y="726.45"></path><path d="M 521.80 432.28 C 543.49 417.03 555.48 386.67 570.20 374.61 C 593.07 355.87 615.08 367.12 622.79 364.55 C 644.83 357.21 667.26 358.27 673.16 370.06 C 673.16 370.06 697.92 359.99 710.00 382.16 C 710.18 382.50 728.32 380.67 739.49 398.54 C 747.72 411.70 755.95 443.67 731.14 453.44 C 715.66 459.54 705.33 444.67 705.33 444.67 C 704.13 445.87 670.19 474.12 664.56 479.57 L 521.79 432.28 Z" fill="#fefefe" fill-rule="evenodd" group-id="1,2" node-id="193" stroke="none" target-height="123.70001" target-width="234.15997" target-x="521.79" target-y="355.87"></path><path d="M 521.80 432.28 C 543.49 417.03 555.48 386.67 570.20 374.61 C 593.07 355.87 615.08 367.12 622.79 364.55 C 644.83 357.21 667.26 358.27 673.16 370.06 C 673.16 370.06 697.92 359.99 710.00 382.16 C 710.18 382.50 728.32 380.67 739.49 398.54 C 747.72 411.70 755.95 443.67 731.14 453.44 C 715.66 459.54 705.33 444.67 705.33 444.67 C 704.13 445.87 670.19 474.12 664.56 479.57 L 521.79 432.28 Z" fill="none" group-id="1,2" node-id="195" stroke="#373435" stroke-linecap="round" stroke-width="1.42" target-height="123.70001" target-width="234.15997" target-x="521.79" target-y="355.87"></path><path d="M 621.05 364.94 C 607.33 372.50 595.40 376.91 579.36 390.55" fill="none" group-id="1,2" node-id="197" stroke="#373435" stroke-linecap="round" stroke-width="1.42" target-height="25.609985" target-width="41.690002" target-x="579.36" target-y="364.94"></path><path d="M 650.12 383.27 C 656.56 377.80 664.08 373.07 673.16 370.07" fill="none" group-id="1,2" node-id="199" stroke="#373435" stroke-linecap="round" stroke-width="1.42" target-height="13.199951" target-width="23.039978" target-x="650.12" target-y="370.07"></path><path d="M 690.77 393.35 C 698.55 386.65 706.82 381.93 712.79 382.31" fill="none" group-id="1,2" node-id="201" stroke="#373435" stroke-linecap="round" stroke-width="1.42" target-height="11.420013" target-width="22.02002" target-x="690.77" target-y="381.93"></path><path d="M 704.13 445.88 L 720.33 430.55" fill="none" group-id="1,2" node-id="203" stroke="#373435" stroke-linecap="round" stroke-width="1.42" target-height="15.330017" target-width="16.200012" target-x="704.13" target-y="430.55"></path><path d="M 378.08 568.44 L 358.66 421.13" fill="none" group-id="1,2" node-id="205" stroke="#fefefe" stroke-linecap="round" stroke-width="1.42" target-height="147.31" target-width="19.419952" target-x="358.66" target-y="421.13"></path><path d="M 360.80 422.24 C 385.12 460.70 409.45 499.17 433.77 537.63 C 440.18 545.93 443.74 552.80 454.19 562.53" fill="none" group-id="1,2" node-id="207" stroke="#fefefe" stroke-linecap="round" stroke-width="1.42" target-height="140.29001" target-width="93.390045" target-x="360.79996" target-y="422.24002"></path><path d="M 408.13 224.11 L 348.59 209.46 C 329.33 204.99 330.71 220.35 333.85 225.66" fill="none" group-id="1,2" node-id="209" stroke="#373435" stroke-linecap="round" stroke-width="1.42" target-height="20.669983" target-width="78.79999" target-x="329.33" target-y="204.99002"></path></g></g></svg>